<?xml version="1.0" standalone="no"?>
<!DOCTYPE svg PUBLIC "-//W3C//DTD SVG 20010904//EN"
 "http://www.w3.org/TR/2001/REC-SVG-20010904/DTD/svg10.dtd">
<svg version="1.0" xmlns="http://www.w3.org/2000/svg"
 width="500.000000pt" height="500.000000pt" viewBox="0 0 500.000000 500.000000"
 preserveAspectRatio="xMidYMid meet">
<metadata>
Created by potrace 1.14, written by Peter Selinger 2001-2017
</metadata>
<g transform="translate(0.000000,500.000000) scale(0.100000,-0.100000)"
fill="#000000" stroke="none">
<path d="M3480 3990 c-27 -27 -25 -46 4 -65 29 -19 60 -8 69 24 11 42 -42 72
-73 41z"/>
<path d="M798 3837 c-33 -26 -23 -92 18 -107 32 -12 72 3 83 32 22 60 -50 114
-101 75z"/>
<path d="M2370 3748 c-119 -13 -221 -33 -253 -50 -10 -5 -43 -11 -75 -14 -92
-8 -242 -48 -398 -106 -78 -28 -83 -29 -125 -15 -38 13 -47 13 -75 0 -31 -16
-64 -59 -64 -86 0 -8 -34 -36 -76 -62 -260 -163 -450 -378 -547 -620 -97 -243
-86 -525 30 -764 l38 -80 -22 -28 c-97 -121 -50 -333 85 -390 66 -27 170 -8
222 42 l25 24 45 -35 c218 -167 604 -322 895 -359 28 -3 59 -8 70 -10 70 -15
430 -23 490 -11 11 2 52 7 90 10 191 19 444 87 642 173 l84 37 36 -38 c45 -46
75 -62 150 -79 73 -17 114 -13 180 19 167 80 215 314 97 470 -21 28 -24 36
-11 31 9 -3 17 -3 17 1 0 4 17 25 38 47 21 22 51 63 66 90 16 28 39 69 52 92
40 71 92 241 101 333 8 81 3 206 -11 279 -12 64 -60 196 -93 259 -23 44 -29
62 -19 62 8 0 37 23 66 51 123 120 143 289 50 426 -136 202 -425 195 -567 -14
l-14 -22 -37 25 c-126 86 -478 217 -642 239 -25 4 -81 17 -125 30 -105 30
-119 33 -196 40 -109 10 -152 11 -219 3z m-516 -160 c-2 -7 -36 -35 -74 -62
-140 -99 -257 -228 -344 -379 -28 -49 -60 -90 -92 -115 -195 -156 -296 -348
-289 -550 5 -164 66 -292 205 -433 81 -82 187 -162 275 -207 22 -11 72 -50
110 -87 147 -140 410 -281 576 -309 19 -3 45 -8 59 -12 61 -14 277 -14 364 1
244 42 444 145 620 320 51 51 109 101 127 111 19 11 39 24 46 29 6 6 35 26 63
45 52 35 130 106 163 148 32 42 109 197 129 262 11 36 21 88 22 117 1 57 11
76 21 43 5 -17 10 -19 21 -9 30 25 13 82 -32 107 -9 5 -20 31 -25 57 -5 27
-28 87 -50 134 -34 70 -58 102 -125 169 -46 45 -87 82 -93 82 -5 0 -30 38 -56
85 -81 149 -195 285 -330 392 l-40 32 40 -11 c93 -25 328 -130 394 -177 25
-18 28 -25 21 -49 -21 -74 5 -186 59 -259 81 -106 202 -154 334 -129 34 6 37
5 61 -36 35 -61 65 -140 91 -238 27 -100 31 -257 10 -365 -25 -135 -116 -323
-207 -428 -36 -43 -41 -46 -61 -33 -82 52 -217 52 -298 1 -95 -60 -143 -158
-138 -281 l4 -76 -50 -23 c-208 -97 -437 -158 -685 -185 -109 -12 -366 -16
-435 -6 -22 3 -67 8 -99 11 -289 29 -610 145 -857 311 -63 42 -115 77 -115 78
-1 0 2 24 5 53 12 87 -26 191 -89 240 -18 15 -118 54 -142 56 -10 1 -18 5 -18
9 0 4 -3 7 -7 7 -19 -3 -33 2 -33 11 0 6 -18 39 -39 73 -67 107 -90 206 -86
372 9 329 213 639 570 867 65 41 72 44 92 31 69 -46 163 6 163 89 0 16 6 24
19 25 20 2 131 45 172 68 14 8 29 12 33 8 3 -3 6 -1 6 6 0 7 4 10 9 6 5 -3 12
-1 16 5 9 14 15 13 9 -2z m-524 -705 c-29 -112 -32 -130 -35 -268 -6 -206 35
-388 126 -567 33 -65 -3 -47 -99 50 -142 143 -194 253 -195 407 0 92 27 198
59 236 8 8 14 19 14 23 0 9 82 120 92 124 4 2 8 8 8 14 0 10 42 59 47 55 1 -2
-7 -35 -17 -74z m2373 -131 c48 -91 62 -146 47 -183 -10 -22 -9 -34 3 -57 37
-76 -33 -254 -153 -385 -59 -64 -117 -113 -125 -106 -2 2 10 32 26 66 27 57
74 203 84 262 2 14 8 44 12 66 4 22 7 103 7 180 1 126 -13 237 -40 322 -12 39
106 -101 139 -165z m-2775 -916 c2 -29 -3 -46 -12 -49 -10 -4 -13 5 -12 36 0
33 8 55 22 57 0 0 2 -20 2 -44z m26 -57 c-3 -5 -10 -7 -15 -4 -10 7 -12 -5 -9
-47 1 -16 -3 -28 -9 -28 -6 0 -11 -4 -11 -10 0 -5 8 -7 18 -3 14 5 15 3 5 -8
-16 -16 -17 -33 -1 -23 7 5 8 3 3 -6 -14 -22 -35 19 -32 62 2 22 -1 38 -7 38
-6 0 2 11 19 24 28 23 52 26 39 5z m2090 -1 c-3 -4 0 -8 5 -8 6 0 11 -4 11
-10 0 -12 -22 -9 -32 5 -5 6 -8 4 -8 -5 0 -13 -1 -13 -10 0 -7 10 -10 11 -10
2 0 -7 7 -15 15 -18 14 -6 13 -8 -2 -19 -12 -9 -20 -10 -24 -3 -4 6 -20 11
-37 11 -17 1 -28 6 -24 11 3 5 -2 7 -11 3 -10 -3 -17 -3 -17 2 0 14 43 21 58
9 10 -9 12 -8 10 1 -2 8 5 15 15 16 11 2 21 6 24 9 8 8 42 3 37 -6z m-174 -38
c0 -5 -2 -10 -4 -10 -3 0 -8 5 -11 10 -3 6 -1 10 4 10 6 0 11 -4 11 -10z m941
-169 c2 -106 1 -115 -19 -131 -24 -20 -117 -26 -128 -9 -9 16 4 23 19 11 16
-13 86 2 102 22 14 18 11 219 -4 224 -6 2 -8 8 -5 14 4 6 11 5 20 -4 9 -9 14
-48 15 -127z m-2831 83 c0 -2 -7 -4 -15 -4 -8 0 -15 4 -15 10 0 5 7 7 15 4 8
-4 15 -8 15 -10z m50 -2 c0 -4 -9 -8 -20 -8 -22 0 -27 12 -7 19 14 5 27 -1 27
-11z m2656 -85 c-1 -16 -7 -21 -21 -19 -31 5 -38 18 -20 35 20 21 43 12 41
-16z"/>
<path d="M2980 1751 c0 -10 19 -25 25 -20 1 2 -3 10 -11 17 -8 7 -14 8 -14 3z"/>
<path d="M3650 1576 c0 -2 8 -10 18 -17 15 -13 16 -12 3 4 -13 16 -21 21 -21
13z"/>
<path d="M2925 920 c-8 -13 3 -50 15 -50 25 0 37 13 32 36 -4 24 -35 34 -47
14z"/>
</g>
</svg>
